<svg width="290" height="90" viewBox="0 0 290 90" fill="none" xmlns="http://www.w3.org/2000/svg">
<mask id="mask0_14_182" style="mask-type:alpha" maskUnits="userSpaceOnUse" x="0" y="0" width="290" height="90">
<path d="M0 0H290V30H0V0Z" fill="white"/>
<path d="M0 60H290V90H0V60Z" fill="white"/>
</mask>
<g mask="url(#mask0_14_182)">
<path d="M69.3234 9H72.7234V79H69.3234V9ZM20.2234 79H16.8234V9H20.2234V79ZM69.9234 45H19.6234V41.9H69.9234V45ZM96.2664 79L128.666 9H131.966L164.366 79H160.666L129.566 11.3H131.066L99.9664 79H96.2664ZM107.466 58.5L108.766 55.6H151.566L152.866 58.5H107.466ZM187.995 79V9H212.295C218.095 9 223.062 9.93333 227.195 11.8C231.395 13.6667 234.595 16.3333 236.795 19.8C238.995 23.2 240.095 27.3333 240.095 32.2C240.095 37.0667 238.995 41.2333 236.795 44.7C234.595 48.1667 231.395 50.8333 227.195 52.7C223.062 54.5667 218.095 55.5 212.295 55.5H189.895L191.395 53.9V79H187.995ZM237.195 79L218.995 53.6H222.895L241.195 79H237.195ZM191.395 53.9L189.895 52.4H212.495C220.362 52.4 226.362 50.6333 230.495 47.1C234.695 43.5667 236.795 38.6 236.795 32.2C236.795 25.8 234.695 20.8667 230.495 17.4C226.362 13.8667 220.362 12.1 212.495 12.1H189.895L191.395 10.5V53.9ZM269.773 79V9H273.173V79H269.773Z" fill="black"/>
</g>
<path d="M19.4896 54V37.2H26.4016C27.8896 37.2 29.1616 37.44 30.2176 37.92C31.2896 38.4 32.1136 39.088 32.6896 39.984C33.2656 40.88 33.5536 41.944 33.5536 43.176C33.5536 44.408 33.2656 45.472 32.6896 46.368C32.1136 47.264 31.2896 47.952 30.2176 48.432C29.1616 48.912 27.8896 49.152 26.4016 49.152H21.2176L22.6096 47.688V54H19.4896ZM22.6096 48.024L21.2176 46.512H26.2576C27.6336 46.512 28.6656 46.224 29.3536 45.648C30.0576 45.056 30.4096 44.232 30.4096 43.176C30.4096 42.104 30.0576 41.28 29.3536 40.704C28.6656 40.128 27.6336 39.84 26.2576 39.84H21.2176L22.6096 38.304V48.024ZM58.0773 37.2H61.1973V54H58.0773V37.2ZM49.3893 54H46.2693V37.2H49.3893V54ZM58.3173 46.8H49.1253V44.136H58.3173V46.8ZM83.171 54.24C81.859 54.24 80.651 54.024 79.547 53.592C78.443 53.16 77.483 52.56 76.667 51.792C75.851 51.008 75.219 50.096 74.771 49.056C74.323 48 74.099 46.848 74.099 45.6C74.099 44.352 74.323 43.208 74.771 42.168C75.219 41.112 75.851 40.2 76.667 39.432C77.483 38.648 78.443 38.04 79.547 37.608C80.651 37.176 81.851 36.96 83.147 36.96C84.459 36.96 85.659 37.176 86.747 37.608C87.851 38.04 88.811 38.648 89.627 39.432C90.443 40.2 91.075 41.112 91.523 42.168C91.971 43.208 92.195 44.352 92.195 45.6C92.195 46.848 91.971 48 91.523 49.056C91.075 50.112 90.443 51.024 89.627 51.792C88.811 52.56 87.851 53.16 86.747 53.592C85.659 54.024 84.467 54.24 83.171 54.24ZM83.147 51.504C83.995 51.504 84.779 51.36 85.499 51.072C86.219 50.784 86.843 50.376 87.371 49.848C87.899 49.304 88.307 48.68 88.595 47.976C88.899 47.256 89.051 46.464 89.051 45.6C89.051 44.736 88.899 43.952 88.595 43.248C88.307 42.528 87.899 41.904 87.371 41.376C86.843 40.832 86.219 40.416 85.499 40.128C84.779 39.84 83.995 39.696 83.147 39.696C82.299 39.696 81.515 39.84 80.795 40.128C80.091 40.416 79.467 40.832 78.923 41.376C78.395 41.904 77.979 42.528 77.675 43.248C77.387 43.952 77.243 44.736 77.243 45.6C77.243 46.448 77.387 47.232 77.675 47.952C77.979 48.672 78.395 49.304 78.923 49.848C79.451 50.376 80.075 50.784 80.795 51.072C81.515 51.36 82.299 51.504 83.147 51.504ZM108.276 54V39.84H102.708V37.2H116.964V39.84H111.396V54H108.276ZM136.543 54.24C135.231 54.24 134.023 54.024 132.919 53.592C131.815 53.16 130.855 52.56 130.039 51.792C129.223 51.008 128.591 50.096 128.143 49.056C127.695 48 127.471 46.848 127.471 45.6C127.471 44.352 127.695 43.208 128.143 42.168C128.591 41.112 129.223 40.2 130.039 39.432C130.855 38.648 131.815 38.04 132.919 37.608C134.023 37.176 135.223 36.96 136.519 36.96C137.831 36.96 139.031 37.176 140.119 37.608C141.223 38.04 142.183 38.648 142.999 39.432C143.815 40.2 144.447 41.112 144.895 42.168C145.343 43.208 145.567 44.352 145.567 45.6C145.567 46.848 145.343 48 144.895 49.056C144.447 50.112 143.815 51.024 142.999 51.792C142.183 52.56 141.223 53.16 140.119 53.592C139.031 54.024 137.839 54.24 136.543 54.24ZM136.519 51.504C137.367 51.504 138.151 51.36 138.871 51.072C139.591 50.784 140.215 50.376 140.743 49.848C141.271 49.304 141.679 48.68 141.967 47.976C142.271 47.256 142.423 46.464 142.423 45.6C142.423 44.736 142.271 43.952 141.967 43.248C141.679 42.528 141.271 41.904 140.743 41.376C140.215 40.832 139.591 40.416 138.871 40.128C138.151 39.84 137.367 39.696 136.519 39.696C135.671 39.696 134.887 39.84 134.167 40.128C133.463 40.416 132.839 40.832 132.295 41.376C131.767 41.904 131.351 42.528 131.047 43.248C130.759 43.952 130.615 44.736 130.615 45.6C130.615 46.448 130.759 47.232 131.047 47.952C131.351 48.672 131.767 49.304 132.295 49.848C132.823 50.376 133.447 50.784 134.167 51.072C134.887 51.36 135.671 51.504 136.519 51.504Z" fill="#E5594F"/>
<path d="M166.322 54.24C165.01 54.24 163.802 54.032 162.698 53.616C161.61 53.184 160.658 52.584 159.842 51.816C159.026 51.032 158.394 50.112 157.946 49.056C157.498 48 157.274 46.848 157.274 45.6C157.274 44.352 157.498 43.2 157.946 42.144C158.394 41.088 159.026 40.176 159.842 39.408C160.674 38.624 161.642 38.024 162.746 37.608C163.85 37.176 165.058 36.96 166.37 36.96C167.794 36.96 169.074 37.192 170.21 37.656C171.362 38.12 172.33 38.8 173.114 39.696L171.146 41.616C170.49 40.96 169.778 40.48 169.01 40.176C168.258 39.856 167.426 39.696 166.514 39.696C165.634 39.696 164.818 39.84 164.066 40.128C163.314 40.416 162.666 40.824 162.122 41.352C161.578 41.88 161.154 42.504 160.85 43.224C160.562 43.944 160.418 44.736 160.418 45.6C160.418 46.448 160.562 47.232 160.85 47.952C161.154 48.672 161.578 49.304 162.122 49.848C162.666 50.376 163.306 50.784 164.042 51.072C164.778 51.36 165.594 51.504 166.49 51.504C167.322 51.504 168.122 51.376 168.89 51.12C169.674 50.848 170.418 50.4 171.122 49.776L172.898 52.104C172.018 52.808 170.994 53.344 169.826 53.712C168.674 54.064 167.506 54.24 166.322 54.24ZM169.946 51.696V45.408H172.898V52.104L169.946 51.696ZM189.493 44.184H197.845V46.752H189.493V44.184ZM189.733 51.384H199.213V54H186.613V37.2H198.877V39.816H189.733V51.384ZM212.291 54V37.2H214.859L225.395 50.136H224.123V37.2H227.219V54H224.651L214.115 41.064H215.387V54H212.291ZM241.321 54V37.2H244.441V54H241.321ZM266.361 54.24C265.081 54.24 263.889 54.032 262.785 53.616C261.697 53.184 260.745 52.584 259.929 51.816C259.129 51.032 258.505 50.112 258.057 49.056C257.609 48 257.385 46.848 257.385 45.6C257.385 44.352 257.609 43.2 258.057 42.144C258.505 41.088 259.137 40.176 259.953 39.408C260.769 38.624 261.721 38.024 262.809 37.608C263.897 37.176 265.089 36.96 266.385 36.96C267.761 36.96 269.017 37.2 270.153 37.68C271.289 38.144 272.249 38.84 273.033 39.768L271.017 41.664C270.409 41.008 269.729 40.52 268.977 40.2C268.225 39.864 267.409 39.696 266.529 39.696C265.649 39.696 264.841 39.84 264.105 40.128C263.385 40.416 262.753 40.824 262.209 41.352C261.681 41.88 261.265 42.504 260.961 43.224C260.673 43.944 260.529 44.736 260.529 45.6C260.529 46.464 260.673 47.256 260.961 47.976C261.265 48.696 261.681 49.32 262.209 49.848C262.753 50.376 263.385 50.784 264.105 51.072C264.841 51.36 265.649 51.504 266.529 51.504C267.409 51.504 268.225 51.344 268.977 51.024C269.729 50.688 270.409 50.184 271.017 49.512L273.033 51.432C272.249 52.344 271.289 53.04 270.153 53.52C269.017 54 267.753 54.24 266.361 54.24Z" fill="#F39A2B"/>
</svg>
